<?xml version="1.0" encoding="UTF-8" standalone="no"?>
<svg
   xmlns:dc="http://purl.org/dc/elements/1.1/"
   xmlns:cc="http://creativecommons.org/ns#"
   xmlns:rdf="http://www.w3.org/1999/02/22-rdf-syntax-ns#"
   xmlns:svg="http://www.w3.org/2000/svg"
   xmlns="http://www.w3.org/2000/svg"
   xmlns:sodipodi="http://sodipodi.sourceforge.net/DTD/sodipodi-0.dtd"
   xmlns:inkscape="http://www.inkscape.org/namespaces/inkscape"
   viewBox="0 0 199.7 184.2"
   version="1.1"
   id="svg62"
   sodipodi:docname="mdbook-favicon.svg"
   inkscape:version="1.0.2 (e86c870879, 2021-01-15, custom)">
  <metadata
     id="metadata68">
    <rdf:RDF>
      <cc:Work
         rdf:about="">
        <dc:format>image/svg+xml</dc:format>
        <dc:type
           rdf:resource="http://purl.org/dc/dcmitype/StillImage" />
      </cc:Work>
    </rdf:RDF>
  </metadata>
  <defs
     id="defs66" />
  <sodipodi:namedview
     pagecolor="#ffffff"
     bordercolor="#666666"
     borderopacity="1"
     objecttolerance="10"
     gridtolerance="10"
     guidetolerance="10"
     inkscape:pageopacity="0"
     inkscape:pageshadow="2"
     inkscape:window-width="1920"
     inkscape:window-height="1026"
     id="namedview64"
     showgrid="false"
     inkscape:zoom="3.2245912"
     inkscape:cx="84.790185"
     inkscape:cy="117.96478"
     inkscape:window-x="0"
     inkscape:window-y="0"
     inkscape:window-maximized="1"
     inkscape:current-layer="svg62" />
  <style
     id="style58">
    @media (prefers-color-scheme: dark) {
      svg { fill: white; }
    }
  </style>
  <path
     d="m 189.5,36.8 c 0.2,2.8 0,5.1 -0.6,6.8 L 153,162 c -0.6,2.1 -2,3.7 -4.2,5 -2.2,1.2 -4.4,1.9 -6.7,1.9 H 31.4 c -9.6,0 -15.3,-2.8 -17.3,-8.4 -0.8,-2.2 -0.8,-3.9 0.1,-5.2 0.9,-1.2 2.4,-1.8 4.6,-1.8 H 123 c 7.4,0 12.6,-1.4 15.4,-4.1 2.8,-2.7 5.7,-8.9 8.6,-18.4 L 179.9,22.4 c 1.8,-5.9 1,-11.1 -2.2,-15.6 C 174.5,2.3 169.9,0 164,0 H 72.7 c -1,0 -3.1,0.4 -6.1,1.1 L 66.7,0.7 C 64.5,0.2 62.6,0 61,0.1 c -1.6,0.1 -3,0.5 -4.3,1.4 -1.3,0.9 -2.4,1.8 -3.2,2.8 -0.8,1 -1.5,2.2 -2.3,3.8 -0.8,1.6 -1.4,3 -1.9,4.3 -0.5,1.3 -1.1,2.7 -1.8,4.2 -0.7,1.5 -1.3,2.7 -2,3.7 -0.5,0.6 -1.2,1.5 -2,2.5 -0.8,1 -1.6,2 -2.2,2.8 -0.6,0.8 -0.9,1.5 -1.1,2.2 -0.2,0.7 -0.1,1.8 0.2,3.2 0.3,1.4 0.4,2.4 0.4,3.1 -0.3,3 -1.4,6.9 -3.3,11.6 -1.9,4.7 -3.6,8.1 -5.1,10.1 -0.3,0.4 -1.2,1.3 -2.6,2.7 -1.4,1.4 -2.3,2.6 -2.6,3.7 -0.3,0.4 -0.3,1.5 -0.1,3.4 0.3,1.8 0.4,3.1 0.3,3.8 -0.3,2.7 -1.3,6.3 -3,10.8 -2.406801,6.370944 -3.4,8.2 -5,11 -0.2,0.5 -0.9,1.4 -2,2.8 -1.1,1.4 -1.8,2.5 -2,3.4 -0.2,0.6 -0.1,1.8 0.1,3.4 0.2,1.6 0.2,2.8 -0.1,3.6 -0.6,3 -1.8,6.7 -3.6,11 -1.8,4.3 -3.6,7.9 -5.4,11 -0.5,0.8 -1.1,1.7 -2,2.8 -0.8,1.1 -1.5,2 -2,2.8 -0.5,0.8 -0.8,1.6 -1,2.5 -0.1,0.5 0,1.3 0.4,2.3 0.3,1.1 0.4,1.9 0.4,2.6 -0.1,1.1 -0.2,2.6 -0.5,4.4 -0.2,1.8 -0.4,2.9 -0.4,3.2 -1.8,4.8 -1.7,9.9 0.2,15.2 2.2,6.2 6.2,11.5 11.9,15.8 5.7,4.3 11.7,6.4 17.8,6.4 h 110.7 c 5.2,0 10.1,-1.7 14.7,-5.2 4.6,-3.5 7.7,-7.8 9.2,-12.9 l 33,-108.6 c 1.8,-5.8 1,-10.9 -2.2,-15.5 -1.7,-2.5 -4,-4.2 -7.1,-5.4 z M 38.14858,105.59813 60.882735,41.992545 h 10.8 c 6.340631,0 33.351895,0.778957 70.804135,0.970479 -18.18245,63.254766 0,0 -18.18245,63.254766 -23.00947,-0.10382 -63.362955,-0.6218 -72.55584,-0.51966 -18,0.2 -13.6,-0.1 -13.6,-0.1 z m 80.621,-5.891206 c 15.19043,-50.034423 0,1e-5 15.19043,-50.034423 l -11.90624,-0.13228 2.73304,-9.302941 -44.32863,0.07339 -2.532953,8.036036 -11.321128,-0.18864 -17.955519,51.440073 c 0.02698,0.027 4.954586,0.0514 12.187488,0.0717 l -2.997994,9.804886 c 11.36463,0.0271 1.219679,-0.0736 46.117666,-0.31499 l 2.65246,-9.571696 c 7.08021,0.14819 11.59705,0.13117 12.16138,0.1189 z m -56.149615,-3.855606 13.7,-42.5 h 9.8 l 1.194896,32.99936 23.205109,-32.99936 h 9.9 l -13.6,42.5 h -7.099996 l 12.499996,-35.4 -24.50001,35.4 h -6.799995 l -0.8,-35 -10.8,35 z"
     id="path60"
     sodipodi:nodetypes="ccccssccsssccsssccsssssscsssscssscccscscscsccsccccccssssccccccsccsccccccccccccccccccccccccccccc" />
</svg>
